STARTFONT 2.1
COMMENT $XConsortium: luIS10.bdf,v 1.7 94/04/02 16:23:25 gildea Exp $
COMMENT  (c) Copyright Bigelow & Holmes 1986, 1985. Lucida is a registered
COMMENT  trademark of Bigelow & Holmes. See LEGAL NOTICE file for terms 
COMMENT  of the license. 
COMMENT  
COMMENT  Translation to ISO8859-2 by Cub Soft;  Petr.Kolar@vslib.cz
COMMENT  
FONT -B&H-Lucida-Medium-I-Normal-Sans-14-100-100-100-P-80-ISO8859-2
SIZE 10 100 100
FONTBOUNDINGBOX 28 16 -9 -3
STARTPROPERTIES 20
COMMENT Begin LogicalFontDescription
FONTNAME_REGISTRY ""
FOUNDRY "B&H"
FAMILY_NAME "Lucida"
WEIGHT_NAME "Medium"
SLANT "I"
SETWIDTH_NAME "Normal"
ADD_STYLE_NAME "Sans"
PIXEL_SIZE 14
POINT_SIZE 100
RESOLUTION_X 100
RESOLUTION_Y 100
SPACING "P"
AVERAGE_WIDTH 80
CHARSET_REGISTRY "ISO8859"
CHARSET_ENCODING "2"
COMMENT END LogicalFontDescription
FONT_ASCENT 13
FONT_DESCENT 3
DEFAULT_CHAR 0
COPYRIGHT "Copyright Bigelow & Holmes 1986, 1985., Copyright 1996 Cub Soft"
FACE_NAME "Lucida Sans Italic"
ENDPROPERTIES
CHARS 191
STARTCHAR space
ENCODING 32
SWIDTH 316 0
DWIDTH 4 0
BBX 1 1 0 0
BITMAP
00
ENDCHAR
STARTCHAR exclam
ENCODING 33
SWIDTH 193 0
DWIDTH 4 0
BBX 3 10 2 0
BITMAP
60
60
60
40
40
40
40
00
00
c0
ENDCHAR
STARTCHAR quotedbl
ENCODING 34
SWIDTH 361 0
DWIDTH 5 0
BBX 4 4 2 6
BITMAP
d0
d0
d0
90
ENDCHAR
STARTCHAR numbersign
ENCODING 35
SWIDTH 633 0
DWIDTH 9 0
BBX 9 10 1 0
BITMAP
0480
0900
0900
7f80
1200
2400
ff00
4800
4800
9000
ENDCHAR
STARTCHAR dollar
ENCODING 36
SWIDTH 633 0
DWIDTH 9 0
BBX 7 13 2 -2
BITMAP
08
3e
68
68
30
30
18
14
14
2c
f8
20
20
ENDCHAR
STARTCHAR percent
ENCODING 37
SWIDTH 741 0
DWIDTH 10 0
BBX 11 10 1 0
BITMAP
3860
6880
4900
4a00
7400
0f80
1ec0
34c0
6480
c700
ENDCHAR
STARTCHAR ampersand
ENCODING 38
SWIDTH 701 0
DWIDTH 10 0
BBX 9 10 1 0
BITMAP
0e00
1b00
1300
1600
3800
e980
cd00
c700
c600
7b00
ENDCHAR
STARTCHAR apostrophe
ENCODING 39
SWIDTH 217 0
DWIDTH 3 0
BBX 2 4 2 6
BITMAP
c0
c0
40
80
ENDCHAR
STARTCHAR parenleft
ENCODING 40
SWIDTH 325 0
DWIDTH 5 0
BBX 5 13 1 -3
BITMAP
08
10
20
60
40
c0
c0
c0
c0
c0
c0
40
40
ENDCHAR
STARTCHAR parenright
ENCODING 41
SWIDTH 325 0
DWIDTH 5 0
BBX 5 13 0 -3
BITMAP
20
10
10
18
18
18
18
10
10
30
60
40
80
ENDCHAR
STARTCHAR asterisk
ENCODING 42
SWIDTH 470 0
DWIDTH 7 0
BBX 6 5 2 5
BITMAP
20
a4
58
60
90
ENDCHAR
STARTCHAR plus
ENCODING 43
SWIDTH 633 0
DWIDTH 9 0
BBX 8 8 1 0
BITMAP
08
08
08
08
ff
10
10
10
ENDCHAR
STARTCHAR comma
ENCODING 44
SWIDTH 316 0
DWIDTH 4 0
BBX 2 5 1 -3
BITMAP
40
c0
40
40
80
ENDCHAR
STARTCHAR minus
ENCODING 45
SWIDTH 633 0
DWIDTH 9 0
BBX 8 1 1 4
BITMAP
ff
ENDCHAR
STARTCHAR period
ENCODING 46
SWIDTH 316 0
DWIDTH 4 0
BBX 2 1 1 0
BITMAP
c0
ENDCHAR
STARTCHAR slash
ENCODING 47
SWIDTH 482 0
DWIDTH 7 0
BBX 9 13 0 -3
BITMAP
0180
0100
0300
0200
0400
0c00
0800
1800
1000
2000
6000
4000
c000
ENDCHAR
STARTCHAR zero
ENCODING 48
SWIDTH 633 0
DWIDTH 9 0
BBX 8 10 1 0
BITMAP
1e
33
63
43
c3
c3
c2
c6
cc
78
ENDCHAR
STARTCHAR one
ENCODING 49
SWIDTH 633 0
DWIDTH 9 0
BBX 3 10 4 0
BITMAP
e0
20
60
40
40
40
40
c0
80
80
ENDCHAR
STARTCHAR two
ENCODING 50
SWIDTH 633 0
DWIDTH 9 0
BBX 8 10 1 0
BITMAP
1e
23
03
03
06
0c
30
60
c0
fc
ENDCHAR
STARTCHAR three
ENCODING 51
SWIDTH 633 0
DWIDTH 9 0
BBX 7 10 1 0
BITMAP
3c
06
02
06
38
0c
06
06
0c
f8
ENDCHAR
STARTCHAR four
ENCODING 52
SWIDTH 633 0
DWIDTH 9 0
BBX 7 10 1 0
BITMAP
06
0e
1c
34
64
cc
fe
08
08
18
ENDCHAR
STARTCHAR five
ENCODING 53
SWIDTH 633 0
DWIDTH 9 0
BBX 8 10 2 0
BITMAP
3f
20
20
20
78
0c
06
04
0c
f8
ENDCHAR
STARTCHAR six
ENCODING 54
SWIDTH 633 0
DWIDTH 9 0
BBX 8 10 2 0
BITMAP
0f
31
60
40
fc
e6
c2
c6
c4
78
ENDCHAR
STARTCHAR seven
ENCODING 55
SWIDTH 633 0
DWIDTH 9 0
BBX 8 10 2 0
BITMAP
7f
02
04
0c
18
30
20
60
c0
c0
ENDCHAR
STARTCHAR eight
ENCODING 56
SWIDTH 633 0
DWIDTH 9 0
BBX 8 10 2 0
BITMAP
1e
33
23
36
1c
6c
c6
c6
c4
78
ENDCHAR
STARTCHAR nine
ENCODING 57
SWIDTH 633 0
DWIDTH 9 0
BBX 8 10 1 0
BITMAP
1e
23
63
43
67
3f
02
06
8c
f8
ENDCHAR
STARTCHAR colon
ENCODING 58
SWIDTH 316 0
DWIDTH 4 0
BBX 3 7 1 0
BITMAP
60
00
00
00
00
00
c0
ENDCHAR
STARTCHAR semicolon
ENCODING 59
SWIDTH 316 0
DWIDTH 4 0
BBX 3 10 1 -3
BITMAP
60
00
00
00
00
00
c0
40
40
80
ENDCHAR
STARTCHAR less
ENCODING 60
SWIDTH 633 0
DWIDTH 9 0
BBX 9 8 1 0
BITMAP
0080
0700
1c00
f000
6000
1800
0600
0300
ENDCHAR
STARTCHAR equal
ENCODING 61
SWIDTH 633 0
DWIDTH 9 0
BBX 9 4 1 2
BITMAP
ff80
0000
0000
ff80
ENDCHAR
STARTCHAR greater
ENCODING 62
SWIDTH 633 0
DWIDTH 9 0
BBX 9 8 0 0
BITMAP
6000
3000
0c00
0300
0780
1c00
7000
8000
ENDCHAR
STARTCHAR question
ENCODING 63
SWIDTH 464 0
DWIDTH 6 0
BBX 6 10 2 0
BITMAP
f8
8c
0c
18
30
60
40
00
00
c0
ENDCHAR
STARTCHAR at
ENCODING 64
SWIDTH 858 0
DWIDTH 12 0
BBX 12 10 1 0
BITMAP
0fc0
1820
6790
4890
9990
9110
9330
ddc0
6000
3f00
ENDCHAR
STARTCHAR A
ENCODING 65
SWIDTH 687 0
DWIDTH 10 0
BBX 9 10 0 0
BITMAP
0600
0600
0f00
1b00
1900
3100
3f00
6180
4180
c180
ENDCHAR
STARTCHAR B
ENCODING 66
SWIDTH 593 0
DWIDTH 8 0
BBX 8 10 1 0
BITMAP
3e
23
23
66
7c
44
46
46
ce
fc
ENDCHAR
STARTCHAR C
ENCODING 67
SWIDTH 679 0
DWIDTH 10 0
BBX 9 10 2 0
BITMAP
0f80
3080
6000
6000
c000
c000
c000
c000
4300
3e00
ENDCHAR
STARTCHAR D
ENCODING 68
SWIDTH 743 0
DWIDTH 10 0
BBX 10 10 1 0
BITMAP
3f80
21c0
20c0
60c0
60c0
40c0
4080
4180
c300
fc00
ENDCHAR
STARTCHAR E
ENCODING 69
SWIDTH 547 0
DWIDTH 8 0
BBX 8 10 1 0
BITMAP
3f
20
20
60
7c
40
40
40
c0
fc
ENDCHAR
STARTCHAR F
ENCODING 70
SWIDTH 536 0
DWIDTH 8 0
BBX 8 10 1 0
BITMAP
3f
20
20
60
7c
40
40
40
c0
c0
ENDCHAR
STARTCHAR G
ENCODING 71
SWIDTH 702 0
DWIDTH 10 0
BBX 9 10 2 0
BITMAP
0f80
3080
6000
4000
c000
c000
c300
c300
6300
3e00
ENDCHAR
STARTCHAR H
ENCODING 72
SWIDTH 735 0
DWIDTH 10 0
BBX 10 10 1 0
BITMAP
30c0
20c0
2080
6080
7f80
4180
4180
4100
c100
c300
ENDCHAR
STARTCHAR I
ENCODING 73
SWIDTH 289 0
DWIDTH 4 0
BBX 3 10 2 0
BITMAP
60
60
60
60
40
40
c0
c0
c0
c0
ENDCHAR
STARTCHAR J
ENCODING 74
SWIDTH 408 0
DWIDTH 6 0
BBX 7 13 0 -3
BITMAP
06
06
06
04
0c
0c
0c
0c
08
08
18
18
f0
ENDCHAR
STARTCHAR K
ENCODING 75
SWIDTH 635 0
DWIDTH 9 0
BBX 9 10 1 0
BITMAP
3180
2300
2600
6c00
7800
5000
4800
4400
c400
c200
ENDCHAR
STARTCHAR L
ENCODING 76
SWIDTH 545 0
DWIDTH 8 0
BBX 6 10 1 0
BITMAP
30
20
60
60
60
40
40
c0
c0
fc
ENDCHAR
STARTCHAR M
ENCODING 77
SWIDTH 828 0
DWIDTH 12 0
BBX 11 10 1 0
BITMAP
3060
30e0
78e0
79c0
7940
4ac0
4ec0
ccc0
cc80
c180
ENDCHAR
STARTCHAR N
ENCODING 78
SWIDTH 741 0
DWIDTH 10 0
BBX 10 10 1 0
BITMAP
30c0
30c0
3880
7880
4c80
4c80
4780
4700
c300
c300
ENDCHAR
STARTCHAR O
ENCODING 79
SWIDTH 777 0
DWIDTH 11 0
BBX 10 10 1 0
BITMAP
0f80
30c0
60c0
4040
c040
c0c0
c0c0
c180
6300
3c00
ENDCHAR
STARTCHAR P
ENCODING 80
SWIDTH 575 0
DWIDTH 8 0
BBX 8 10 1 0
BITMAP
3e
23
23
63
66
78
40
40
c0
c0
ENDCHAR
STARTCHAR Q
ENCODING 81
SWIDTH 777 0
DWIDTH 11 0
BBX 10 13 1 -3
BITMAP
0f80
30c0
60c0
4040
c040
c0c0
c0c0
c180
6300
3e00
0200
01c0
0080
ENDCHAR
STARTCHAR R
ENCODING 82
SWIDTH 632 0
DWIDTH 9 0
BBX 8 10 1 0
BITMAP
3f
23
23
62
64
78
4c
44
c6
c3
ENDCHAR
STARTCHAR S
ENCODING 83
SWIDTH 553 0
DWIDTH 8 0
BBX 8 10 1 0
BITMAP
1f
31
20
30
18
0e
06
06
86
f8
ENDCHAR
STARTCHAR T
ENCODING 84
SWIDTH 623 0
DWIDTH 9 0
BBX 9 10 2 0
BITMAP
ff80
0800
1800
1800
1800
1000
1000
3000
3000
3000
ENDCHAR
STARTCHAR U
ENCODING 85
SWIDTH 693 0
DWIDTH 10 0
BBX 9 10 2 0
BITMAP
6180
6180
6100
4100
c100
c300
c300
c200
c600
7c00
ENDCHAR
STARTCHAR V
ENCODING 86
SWIDTH 687 0
DWIDTH 10 0
BBX 9 10 2 0
BITMAP
c180
c100
c300
4200
6600
6c00
6c00
7800
3000
3000
ENDCHAR
STARTCHAR W
ENCODING 87
SWIDTH 886 0
DWIDTH 12 0
BBX 13 10 2 0
BITMAP
c618
c630
ce20
ca60
da40
d2c0
f280
e380
e300
4300
ENDCHAR
STARTCHAR X
ENCODING 88
SWIDTH 620 0
DWIDTH 9 0
BBX 10 10 0 0
BITMAP
30c0
1980
1b00
0e00
0c00
0c00
1e00
3600
6300
c380
ENDCHAR
STARTCHAR Y
ENCODING 89
SWIDTH 608 0
DWIDTH 9 0
BBX 8 10 2 0
BITMAP
c3
c6
64
68
30
30
30
20
20
60
ENDCHAR
STARTCHAR Z
ENCODING 90
SWIDTH 578 0
DWIDTH 8 0
BBX 9 10 0 0
BITMAP
3f80
0180
0300
0600
0c00
1800
3000
6000
e000
fe00
ENDCHAR
STARTCHAR bracketleft
ENCODING 91
SWIDTH 325 0
DWIDTH 5 0
BBX 5 13 1 -3
BITMAP
38
20
20
20
20
60
40
40
40
40
c0
80
e0
ENDCHAR
STARTCHAR backslash
ENCODING 92
SWIDTH 482 0
DWIDTH 7 0
BBX 4 13 2 -3
BITMAP
80
c0
c0
40
40
40
60
20
20
20
30
30
10
ENDCHAR
STARTCHAR bracketright
ENCODING 93
SWIDTH 325 0
DWIDTH 5 0
BBX 5 13 0 -3
BITMAP
38
08
18
10
10
10
10
30
20
20
20
20
e0
ENDCHAR
STARTCHAR asciicircum
ENCODING 94
SWIDTH 633 0
DWIDTH 9 0
BBX 8 8 1 2
BITMAP
04
04
0c
16
32
22
43
c1
ENDCHAR
STARTCHAR underscore
ENCODING 95
SWIDTH 500 0
DWIDTH 7 0
BBX 6 1 0 -2
BITMAP
fc
ENDCHAR
STARTCHAR grave
ENCODING 96
SWIDTH 572 0
DWIDTH 8 0
BBX 2 2 5 8
BITMAP
80
40
ENDCHAR
STARTCHAR a
ENCODING 97
SWIDTH 608 0
DWIDTH 9 0
BBX 7 7 1 0
BITMAP
1e
26
66
cc
cc
d4
ec
ENDCHAR
STARTCHAR b
ENCODING 98
SWIDTH 608 0
DWIDTH 9 0
BBX 7 10 2 0
BITMAP
30
20
60
6e
56
66
66
cc
c8
f0
ENDCHAR
STARTCHAR c
ENCODING 99
SWIDTH 503 0
DWIDTH 7 0
BBX 7 7 1 0
BITMAP
1e
60
40
c0
c0
c4
78
ENDCHAR
STARTCHAR d
ENCODING 100
SWIDTH 608 0
DWIDTH 9 0
BBX 8 10 1 0
BITMAP
03
03
02
1e
32
66
c6
cc
d4
ec
ENDCHAR
STARTCHAR e
ENCODING 101
SWIDTH 529 0
DWIDTH 7 0
BBX 6 7 1 0
BITMAP
1c
64
4c
f8
c0
c4
78
ENDCHAR
STARTCHAR f
ENCODING 102
SWIDTH 383 0
DWIDTH 5 0
BBX 7 14 1 -3
BITMAP
0e
18
30
30
78
20
20
60
60
60
40
40
c0
c0
ENDCHAR
STARTCHAR g
ENCODING 103
SWIDTH 608 0
DWIDTH 9 0
BBX 8 10 1 -3
BITMAP
0f
33
62
66
46
4a
76
04
84
f8
ENDCHAR
STARTCHAR h
ENCODING 104
SWIDTH 620 0
DWIDTH 9 0
BBX 7 10 1 0
BITMAP
30
20
20
6e
56
66
66
44
c4
cc
ENDCHAR
STARTCHAR i
ENCODING 105
SWIDTH 289 0
DWIDTH 4 0
BBX 3 10 2 0
BITMAP
20
00
00
60
40
40
40
c0
c0
c0
ENDCHAR
STARTCHAR j
ENCODING 106
SWIDTH 325 0
DWIDTH 5 0
BBX 7 13 -1 -3
BITMAP
06
00
00
04
04
0c
0c
0c
08
08
18
10
e0
ENDCHAR
STARTCHAR k
ENCODING 107
SWIDTH 572 0
DWIDTH 8 0
BBX 7 10 1 0
BITMAP
30
20
20
66
6c
58
70
58
d8
cc
ENDCHAR
STARTCHAR l
ENCODING 108
SWIDTH 289 0
DWIDTH 4 0
BBX 4 10 1 0
BITMAP
30
30
20
20
60
60
40
40
c0
c0
ENDCHAR
STARTCHAR m
ENCODING 109
SWIDTH 934 0
DWIDTH 13 0
BBX 12 7 1 0
BITMAP
2e70
72b0
7330
6630
4620
4420
8460
ENDCHAR
STARTCHAR n
ENCODING 110
SWIDTH 620 0
DWIDTH 9 0
BBX 7 7 1 0
BITMAP
6e
56
66
66
44
c4
cc
ENDCHAR
STARTCHAR o
ENCODING 111
SWIDTH 566 0
DWIDTH 8 0
BBX 7 7 1 0
BITMAP
1c
62
42
c2
c6
cc
78
ENDCHAR
STARTCHAR p
ENCODING 112
SWIDTH 608 0
DWIDTH 9 0
BBX 8 10 1 -3
BITMAP
37
2b
73
63
46
4c
78
c0
c0
80
ENDCHAR
STARTCHAR q
ENCODING 113
SWIDTH 608 0
DWIDTH 9 0
BBX 7 10 1 -3
BITMAP
1e
26
66
cc
cc
d4
ec
0c
08
08
ENDCHAR
STARTCHAR r
ENCODING 114
SWIDTH 478 0
DWIDTH 7 0
BBX 6 7 2 0
BITMAP
6c
50
60
60
40
c0
c0
ENDCHAR
STARTCHAR s
ENCODING 115
SWIDTH 489 0
DWIDTH 7 0
BBX 6 7 1 0
BITMAP
3c
64
60
30
18
98
f0
ENDCHAR
STARTCHAR t
ENCODING 116
SWIDTH 383 0
DWIDTH 5 0
BBX 5 9 1 0
BITMAP
20
20
f8
60
60
40
c0
c0
70
ENDCHAR
STARTCHAR u
ENCODING 117
SWIDTH 620 0
DWIDTH 9 0
BBX 7 7 2 0
BITMAP
46
46
44
4c
8c
dc
ec
ENDCHAR
STARTCHAR v
ENCODING 118
SWIDTH 545 0
DWIDTH 8 0
BBX 7 7 2 0
BITMAP
c6
c4
cc
d8
50
70
60
ENDCHAR
STARTCHAR w
ENCODING 119
SWIDTH 795 0
DWIDTH 11 0
BBX 10 7 2 0
BITMAP
cc40
cc80
d480
d500
6700
6600
4600
ENDCHAR
STARTCHAR x
ENCODING 120
SWIDTH 541 0
DWIDTH 8 0
BBX 8 7 0 0
BITMAP
33
36
1c
18
3c
6c
c6
ENDCHAR
STARTCHAR y
ENCODING 121
SWIDTH 548 0
DWIDTH 8 0
BBX 8 10 1 -3
BITMAP
c3
42
64
6c
68
70
30
60
40
c0
ENDCHAR
STARTCHAR z
ENCODING 122
SWIDTH 536 0
DWIDTH 8 0
BBX 7 7 1 0
BITMAP
7e
0e
1c
38
70
e0
fc
ENDCHAR
STARTCHAR braceleft
ENCODING 123
SWIDTH 325 0
DWIDTH 5 0
BBX 5 13 1 -3
BITMAP
18
30
20
20
20
60
80
40
40
40
c0
c0
40
ENDCHAR
STARTCHAR bar
ENCODING 124
SWIDTH 233 0
DWIDTH 3 0
BBX 4 13 0 -3
BITMAP
10
30
20
20
20
20
60
40
40
40
40
c0
80
ENDCHAR
STARTCHAR braceright
ENCODING 125
SWIDTH 325 0
DWIDTH 5 0
BBX 5 13 0 -3
BITMAP
10
18
18
10
10
10
08
30
20
20
20
60
c0
ENDCHAR
STARTCHAR asciitilde
ENCODING 126
SWIDTH 633 0
DWIDTH 9 0
BBX 9 3 1 2
BITMAP
7080
c980
8700
ENDCHAR
STARTCHAR nobreakspace
ENCODING 160
SWIDTH 316 0
DWIDTH 4 0
BBX 1 1 0 0
BITMAP
00
ENDCHAR
STARTCHAR Aogonek
ENCODING 161
SWIDTH 687 0
DWIDTH 10 0
BBX 9 12 0 -2
BITMAP
0600
0600
0f00
1b00
1900
3100
3f00
6180
4180
c180
0c00
0c00
ENDCHAR
STARTCHAR breve
ENCODING 162
SWIDTH 566 0
DWIDTH 8 0
BBX 5 2 4 8
BITMAP
88
70
ENDCHAR
STARTCHAR Lstroke
ENCODING 163
SWIDTH 545 0
DWIDTH 8 0
BBX 7 10 1 0
BITMAP
10
30
30
38
30
e0
a0
60
60
7e
ENDCHAR
STARTCHAR currency
ENCODING 164
SWIDTH 633 0
DWIDTH 9 0
BBX 10 8 0 1
BITMAP
6040
3e80
1100
2100
2100
3200
7f00
8180
ENDCHAR
STARTCHAR Lcaron
ENCODING 165
SWIDTH 648 0
DWIDTH 9 0
BBX 7 11 1 0
BITMAP
06
36
22
64
60
60
40
40
c0
c0
fc
ENDCHAR
STARTCHAR Sacute
ENCODING 166
SWIDTH 553 0
DWIDTH 8 0
BBX 8 13 1 0
BITMAP
03
04
00
1f
31
20
30
18
0e
06
06
86
f8
ENDCHAR
STARTCHAR section
ENCODING 167
SWIDTH 633 0
DWIDTH 9 0
BBX 8 13 1 -3
BITMAP
1f
30
20
30
3c
66
62
72
3c
0e
06
84
f8
ENDCHAR
STARTCHAR diaeresis
ENCODING 168
SWIDTH 566 0
DWIDTH 8 0
BBX 4 1 4 9
BITMAP
90
ENDCHAR
STARTCHAR Scaron
ENCODING 169
SWIDTH 553 0
DWIDTH 8 0
BBX 8 13 1 0
BITMAP
0b
06
00
1f
31
20
30
18
0e
06
06
86
f8
ENDCHAR
STARTCHAR Scedilla
ENCODING 170
SWIDTH 553 0
DWIDTH 8 0
BBX 8 13 1 -3
BITMAP
1f
31
20
30
18
0e
06
06
86
f8
08
08
18
ENDCHAR
STARTCHAR Tcaron
ENCODING 171
SWIDTH 623 0
DWIDTH 9 0
BBX 9 13 2 0
BITMAP
1600
0c00
0000
ff80
0800
1800
1800
1800
1000
1000
3000
3000
3000
ENDCHAR
STARTCHAR Zacute
ENCODING 172
SWIDTH 578 0
DWIDTH 8 0
BBX 9 13 0 0
BITMAP
0300
0400
0000
3f80
0180
0300
0600
0c00
1800
3000
6000
e000
fe00
ENDCHAR
STARTCHAR hyphen
ENCODING 173
SWIDTH 313 0
DWIDTH 4 0
BBX 3 1 2 4
BITMAP
e0
ENDCHAR
STARTCHAR Zcaron
ENCODING 174
SWIDTH 578 0
DWIDTH 8 0
BBX 9 13 0 0
BITMAP
0b00
0600
0000
3f80
0180
0300
0600
0c00
1800
3000
6000
e000
fe00
ENDCHAR
STARTCHAR Zabovedot
ENCODING 175
SWIDTH 578 0
DWIDTH 8 0
BBX 9 12 0 0
BITMAP
0600
0000
3f80
0180
0300
0600
0c00
1800
3000
6000
e000
fe00
ENDCHAR
STARTCHAR degree
ENCODING 176
SWIDTH 269 0
DWIDTH 4 0
BBX 3 2 2 8
BITMAP
e0
e0
ENDCHAR
STARTCHAR aogonek
ENCODING 177
SWIDTH 608 0
DWIDTH 9 0
BBX 7 9 1 -2
BITMAP
1e
26
66
cc
cc
d4
ec
18
18
ENDCHAR
STARTCHAR ogonek
ENCODING 178
SWIDTH 566 0
DWIDTH 8 0
BBX 2 2 3 -3
BITMAP
c0
c0
ENDCHAR
STARTCHAR lstroke
ENCODING 179
SWIDTH 289 0
DWIDTH 4 0
BBX 5 10 1 0
BITMAP
30
30
30
28
30
e0
e0
60
60
40
ENDCHAR
STARTCHAR acute
ENCODING 180
SWIDTH 566 0
DWIDTH 8 0
BBX 3 2 5 8
BITMAP
60
80
ENDCHAR
STARTCHAR lcaron
ENCODING 181
SWIDTH 504 0
DWIDTH 7 0
BBX 7 11 1 0
BITMAP
06
36
32
24
20
60
60
40
40
c0
c0
ENDCHAR
STARTCHAR sacute
ENCODING 182
SWIDTH 489 0
DWIDTH 7 0
BBX 6 10 1 0
BITMAP
0c
10
00
3c
64
60
30
18
98
f0
ENDCHAR
STARTCHAR caron
ENCODING 183
SWIDTH 568 0
DWIDTH 8 0
BBX 4 2 4 8
BITMAP
b0
60
ENDCHAR
STARTCHAR cedilla
ENCODING 184
SWIDTH 566 0
DWIDTH 8 0
BBX 2 3 3 -3
BITMAP
40
40
c0
ENDCHAR
STARTCHAR scaron
ENCODING 185
SWIDTH 489 0
DWIDTH 7 0
BBX 6 10 1 0
BITMAP
2c
18
00
3c
64
60
30
18
98
f0
ENDCHAR
STARTCHAR scedilla
ENCODING 186
SWIDTH 489 0
DWIDTH 7 0
BBX 6 10 1 -3
BITMAP
3c
64
60
30
18
98
f0
10
10
30
ENDCHAR
STARTCHAR tcaron
ENCODING 187
SWIDTH 432 0
DWIDTH 6 0
BBX 6 12 1 0
BITMAP
0c
0c
04
28
20
f8
60
60
40
c0
c0
70
ENDCHAR
STARTCHAR zacute
ENCODING 188
SWIDTH 536 0
DWIDTH 8 0
BBX 7 10 1 0
BITMAP
0c
10
00
7e
0e
1c
38
70
e0
fc
ENDCHAR
STARTCHAR doubleacute
ENCODING 189
SWIDTH 566 0
DWIDTH 8 0
BBX 5 2 4 8
BITMAP
38
e0
ENDCHAR
STARTCHAR zcaron
ENCODING 190
SWIDTH 536 0
DWIDTH 8 0
BBX 7 10 1 0
BITMAP
2c
18
00
7e
0e
1c
38
70
e0
fc
ENDCHAR
STARTCHAR zabovedot
ENCODING 191
SWIDTH 536 0
DWIDTH 8 0
BBX 7 9 1 0
BITMAP
18
00
7e
0e
1c
38
70
e0
fc
ENDCHAR
STARTCHAR Racute
ENCODING 192
SWIDTH 632 0
DWIDTH 9 0
BBX 8 13 1 0
BITMAP
03
04
00
3f
23
23
62
64
78
4c
44
c6
c3
ENDCHAR
STARTCHAR Aacute
ENCODING 193
SWIDTH 687 0
DWIDTH 10 0
BBX 9 13 0 0
BITMAP
0180
0200
0000
0600
0600
0f00
1b00
1900
3100
3f00
6180
4180
c180
ENDCHAR
STARTCHAR Acircumflex
ENCODING 194
SWIDTH 687 0
DWIDTH 10 0
BBX 9 13 0 0
BITMAP
0600
0d00
0000
0600
0600
0f00
1b00
1900
3100
3f00
6180
4180
c180
ENDCHAR
STARTCHAR Abreve
ENCODING 195
SWIDTH 687 0
DWIDTH 10 0
BBX 9 13 0 0
BITMAP
0880
0700
0000
0600
0600
0f00
1b00
1900
3100
3f00
6180
4180
c180
ENDCHAR
STARTCHAR Adiaeresis
ENCODING 196
SWIDTH 687 0
DWIDTH 10 0
BBX 9 12 0 0
BITMAP
0480
0000
0600
0600
0f00
1b00
1900
3100
3f00
6180
4180
c180
ENDCHAR
STARTCHAR Lacute
ENCODING 197
SWIDTH 545 0
DWIDTH 8 0
BBX 6 13 1 0
BITMAP
0c
10
00
30
20
60
60
60
40
40
c0
c0
fc
ENDCHAR
STARTCHAR Cacute
ENCODING 198
SWIDTH 679 0
DWIDTH 10 0
BBX 9 13 2 0
BITMAP
0300
0400
0000
0f80
3080
6000
6000
c000
c000
c000
c000
4300
3e00
ENDCHAR
STARTCHAR Ccedilla
ENCODING 199
SWIDTH 679 0
DWIDTH 10 0
BBX 9 13 2 -3
BITMAP
0f80
3080
6000
6000
c000
c000
c000
c000
4300
3e00
1000
1000
3000
ENDCHAR
STARTCHAR Ccaron
ENCODING 200
SWIDTH 679 0
DWIDTH 10 0
BBX 9 13 2 0
BITMAP
0b00
0600
0000
0f80
3080
6000
6000
c000
c000
c000
c000
4300
3e00
ENDCHAR
STARTCHAR Eacute
ENCODING 201
SWIDTH 547 0
DWIDTH 8 0
BBX 8 13 1 0
BITMAP
06
08
00
3f
20
20
60
7c
40
40
40
c0
fc
ENDCHAR
STARTCHAR Eogonek
ENCODING 202
SWIDTH 547 0
DWIDTH 8 0
BBX 8 12 1 -2
BITMAP
3f
20
20
60
7c
40
40
40
c0
fc
18
18
ENDCHAR
STARTCHAR Ediaeresis
ENCODING 203
SWIDTH 547 0
DWIDTH 8 0
BBX 8 12 1 0
BITMAP
12
00
3f
20
20
60
7c
40
40
40
c0
fc
ENDCHAR
STARTCHAR Ecaron
ENCODING 204
SWIDTH 547 0
DWIDTH 8 0
BBX 8 13 1 0
BITMAP
0b
06
00
3f
20
20
60
7c
40
40
40
c0
fc
ENDCHAR
STARTCHAR Iacute
ENCODING 205
SWIDTH 289 0
DWIDTH 4 0
BBX 5 13 2 0
BITMAP
18
20
00
60
60
60
60
40
40
c0
c0
c0
c0
ENDCHAR
STARTCHAR Icircumflex
ENCODING 206
SWIDTH 289 0
DWIDTH 4 0
BBX 4 13 2 0
BITMAP
60
d0
00
60
60
60
60
40
40
c0
c0
c0
c0
ENDCHAR
STARTCHAR Dcaron
ENCODING 207
SWIDTH 743 0
DWIDTH 10 0
BBX 10 13 1 0
BITMAP
0580
0300
0000
3f80
21c0
20c0
60c0
60c0
40c0
4080
4180
c300
fc00
ENDCHAR
STARTCHAR Dstroke
ENCODING 208
SWIDTH 743 0
DWIDTH 10 0
BBX 10 10 1 0
BITMAP
3f80
31c0
30c0
20c0
f8c0
60c0
6080
6180
4300
7e00
ENDCHAR
STARTCHAR Nacute
ENCODING 209
SWIDTH 741 0
DWIDTH 10 0
BBX 10 13 1 0
BITMAP
0180
0200
0000
30c0
30c0
3880
7880
4c80
4c80
4780
4700
c300
c300
ENDCHAR
STARTCHAR Ncaron
ENCODING 210
SWIDTH 741 0
DWIDTH 10 0
BBX 10 13 1 0
BITMAP
0580
0300
0000
30c0
30c0
3880
7880
4c80
4c80
4780
4700
c300
c300
ENDCHAR
STARTCHAR Oacute
ENCODING 211
SWIDTH 777 0
DWIDTH 11 0
BBX 10 13 1 0
BITMAP
0300
0400
0000
0f80
30c0
60c0
4040
c040
c0c0
c0c0
c180
6300
3c00
ENDCHAR
STARTCHAR Ocircumflex
ENCODING 212
SWIDTH 777 0
DWIDTH 11 0
BBX 10 13 1 0
BITMAP
0600
0d00
0000
0f80
30c0
60c0
4040
c040
c0c0
c0c0
c180
6300
3c00
ENDCHAR
STARTCHAR Odoubleacute
ENCODING 213
SWIDTH 777 0
DWIDTH 11 0
BBX 10 13 1 0
BITMAP
01c0
0700
0000
0f80
30c0
60c0
4040
c040
c0c0
c0c0
c180
6300
3c00
ENDCHAR
STARTCHAR Odiaeresis
ENCODING 214
SWIDTH 777 0
DWIDTH 11 0
BBX 10 12 1 0
BITMAP
0900
0000
0f80
30c0
60c0
4040
c040
c0c0
c0c0
c180
6300
3c00
ENDCHAR
STARTCHAR multiply
ENCODING 215
SWIDTH 633 0
DWIDTH 9 0
BBX 9 8 1 0
BITMAP
6080
2300
1600
1c00
1800
3400
6200
8100
ENDCHAR
STARTCHAR Rcaron
ENCODING 216
SWIDTH 632 0
DWIDTH 9 0
BBX 8 13 1 0
BITMAP
0b
06
00
3f
23
23
62
64
78
4c
44
c6
c3
ENDCHAR
STARTCHAR Uring
ENCODING 217
SWIDTH 693 0
DWIDTH 10 0
BBX 9 13 2 0
BITMAP
0600
0600
0000
6180
6180
6100
4100
c100
c300
c300
c200
c600
7c00
ENDCHAR
STARTCHAR Uacute
ENCODING 218
SWIDTH 693 0
DWIDTH 10 0
BBX 9 13 2 0
BITMAP
0600
0800
0000
6180
6180
6100
4100
c100
c300
c300
c200
c600
7c00
ENDCHAR
STARTCHAR Udoubleacute
ENCODING 219
SWIDTH 693 0
DWIDTH 10 0
BBX 9 13 2 0
BITMAP
0380
0e00
0000
6180
6180
6100
4100
c100
c300
c300
c200
c600
7c00
ENDCHAR
STARTCHAR Udiaeresis
ENCODING 220
SWIDTH 693 0
DWIDTH 10 0
BBX 9 12 2 0
BITMAP
1200
0000
6180
6180
6100
4100
c100
c300
c300
c200
c600
7c00
ENDCHAR
STARTCHAR Yacute
ENCODING 221
SWIDTH 608 0
DWIDTH 9 0
BBX 8 13 2 0
BITMAP
0c
10
00
c3
c6
64
68
30
30
30
20
20
60
ENDCHAR
STARTCHAR Tcedilla
ENCODING 222
SWIDTH 623 0
DWIDTH 9 0
BBX 9 13 2 -3
BITMAP
ff80
0800
1800
1800
1800
1000
1000
3000
3000
3000
0400
0400
0c00
ENDCHAR
STARTCHAR ssharp
ENCODING 223
SWIDTH 595 0
DWIDTH 8 0
BBX 8 14 1 -3
BITMAP
1e
13
32
36
28
2c
2e
67
63
43
5e
40
c0
c0
ENDCHAR
STARTCHAR racute
ENCODING 224
SWIDTH 478 0
DWIDTH 7 0
BBX 6 10 2 0
BITMAP
0c
10
00
6c
50
60
60
40
c0
c0
ENDCHAR
STARTCHAR aacute
ENCODING 225
SWIDTH 608 0
DWIDTH 9 0
BBX 7 10 1 0
BITMAP
06
08
00
1e
26
66
cc
cc
d4
ec
ENDCHAR
STARTCHAR acircumflex
ENCODING 226
SWIDTH 608 0
DWIDTH 9 0
BBX 7 10 1 0
BITMAP
0c
1a
00
1e
26
66
cc
cc
d4
ec
ENDCHAR
STARTCHAR abreve
ENCODING 227
SWIDTH 608 0
DWIDTH 9 0
BBX 7 10 1 0
BITMAP
22
1c
00
1e
26
66
cc
cc
d4
ec
ENDCHAR
STARTCHAR adiaeresis
ENCODING 228
SWIDTH 608 0
DWIDTH 9 0
BBX 7 9 1 0
BITMAP
12
00
1e
26
66
cc
cc
d4
ec
ENDCHAR
STARTCHAR lacute
ENCODING 229
SWIDTH 289 0
DWIDTH 4 0
BBX 6 13 1 0
BITMAP
0c
10
00
30
30
20
20
60
60
40
40
c0
c0
ENDCHAR
STARTCHAR cacute
ENCODING 230
SWIDTH 503 0
DWIDTH 7 0
BBX 7 10 1 0
BITMAP
0c
10
00
1e
60
40
c0
c0
c4
78
ENDCHAR
STARTCHAR ccedilla
ENCODING 231
SWIDTH 503 0
DWIDTH 7 0
BBX 7 10 1 -3
BITMAP
1e
60
40
c0
c0
c4
78
20
20
60
ENDCHAR
STARTCHAR ccaron
ENCODING 232
SWIDTH 503 0
DWIDTH 7 0
BBX 7 10 1 0
BITMAP
2c
18
00
1e
60
40
c0
c0
c4
78
ENDCHAR
STARTCHAR eacute
ENCODING 233
SWIDTH 529 0
DWIDTH 7 0
BBX 7 10 1 0
BITMAP
06
08
00
1c
64
4c
f8
c0
c4
78
ENDCHAR
STARTCHAR eogonek
ENCODING 234
SWIDTH 529 0
DWIDTH 7 0
BBX 6 9 1 -2
BITMAP
1c
64
4c
f8
c0
c4
78
30
30
ENDCHAR
STARTCHAR ediaeresis
ENCODING 235
SWIDTH 529 0
DWIDTH 7 0
BBX 7 9 1 0
BITMAP
12
00
1c
64
4c
f8
c0
c4
78
ENDCHAR
STARTCHAR ecaron
ENCODING 236
SWIDTH 529 0
DWIDTH 7 0
BBX 6 10 1 0
BITMAP
2c
18
00
1c
64
4c
f8
c0
c4
78
ENDCHAR
STARTCHAR iacute
ENCODING 237
SWIDTH 289 0
DWIDTH 4 0
BBX 5 10 1 0
BITMAP
18
20
00
60
60
60
40
40
c0
c0
ENDCHAR
STARTCHAR icircumflex
ENCODING 238
SWIDTH 289 0
DWIDTH 4 0
BBX 5 10 1 0
BITMAP
30
68
00
60
60
60
40
40
c0
c0
ENDCHAR
STARTCHAR dcaron
ENCODING 239
SWIDTH 864 0
DWIDTH 12 0
BBX 11 11 1 0
BITMAP
0060
0360
0320
0240
1e00
3200
6600
c600
cc00
d400
ec00
ENDCHAR
STARTCHAR dstroke
ENCODING 240
SWIDTH 864 0
DWIDTH 12 0
BBX 11 10 1 0
BITMAP
0300
0100
ffe0
1e00
3200
6600
c600
cc00
d400
ec00
ENDCHAR
STARTCHAR nacute
ENCODING 241
SWIDTH 620 0
DWIDTH 9 0
BBX 7 10 1 0
BITMAP
0c
10
00
6e
56
66
66
44
c4
cc
ENDCHAR
STARTCHAR ncaron
ENCODING 242
SWIDTH 620 0
DWIDTH 9 0
BBX 7 10 1 0
BITMAP
2c
18
00
6e
56
66
66
44
c4
cc
ENDCHAR
STARTCHAR oacute
ENCODING 243
SWIDTH 566 0
DWIDTH 8 0
BBX 7 10 1 0
BITMAP
06
08
00
1c
62
42
c2
c6
cc
78
ENDCHAR
STARTCHAR ocircumflex
ENCODING 244
SWIDTH 566 0
DWIDTH 8 0
BBX 7 10 1 0
BITMAP
0c
1a
00
1c
62
42
c2
c6
cc
78
ENDCHAR
STARTCHAR odoubleacute
ENCODING 245
SWIDTH 566 0
DWIDTH 8 0
BBX 7 10 1 0
BITMAP
0e
38
00
1c
62
42
c2
c6
cc
78
ENDCHAR
STARTCHAR odiaeresis
ENCODING 246
SWIDTH 566 0
DWIDTH 8 0
BBX 7 9 1 0
BITMAP
12
00
1c
62
42
c2
c6
cc
78
ENDCHAR
STARTCHAR division
ENCODING 247
SWIDTH 633 0
DWIDTH 9 0
BBX 8 7 1 0
BITMAP
08
00
00
ff
00
00
10
ENDCHAR
STARTCHAR rcaron
ENCODING 248
SWIDTH 478 0
DWIDTH 7 0
BBX 6 10 2 0
BITMAP
2c
18
00
6c
50
60
60
40
c0
c0
ENDCHAR
STARTCHAR uring
ENCODING 249
SWIDTH 620 0
DWIDTH 9 0
BBX 7 10 2 0
BITMAP
18
18
00
46
46
44
4c
8c
dc
ec
ENDCHAR
STARTCHAR uacute
ENCODING 250
SWIDTH 620 0
DWIDTH 9 0
BBX 7 10 2 0
BITMAP
06
08
00
46
46
44
4c
8c
dc
ec
ENDCHAR
STARTCHAR udoubleacute
ENCODING 251
SWIDTH 620 0
DWIDTH 9 0
BBX 7 10 2 0
BITMAP
0e
38
00
46
46
44
4c
8c
dc
ec
ENDCHAR
STARTCHAR udiaeresis
ENCODING 252
SWIDTH 620 0
DWIDTH 9 0
BBX 7 9 2 0
BITMAP
12
00
46
46
44
4c
8c
dc
ec
ENDCHAR
STARTCHAR yacute
ENCODING 253
SWIDTH 548 0
DWIDTH 8 0
BBX 8 13 1 -3
BITMAP
06
08
00
c3
42
64
6c
68
70
30
60
40
c0
ENDCHAR
STARTCHAR tcedilla
ENCODING 254
SWIDTH 383 0
DWIDTH 5 0
BBX 5 12 1 -3
BITMAP
20
20
f8
60
60
40
c0
c0
70
10
10
30
ENDCHAR
STARTCHAR abovedot
ENCODING 255
SWIDTH 566 0
DWIDTH 8 0
BBX 2 1 5 9
BITMAP
c0
ENDCHAR
ENDFONT
